Coordinates
version=1
nRows=14
nColumns=24
inDegrees=yes

Units are S.I. units (second, meters, Newtons, ...)
Angles are in degrees.

endheader
time	pelvis_tilt	pelvis_list	pelvis_rotation	pelvis_tx	pelvis_ty	pelvis_tz	hip_flexion_r	hip_adduction_r	hip_rotation_r	knee_angle_r	ankle_angle_r	subtalar_angle_r	mtp_angle_r	hip_flexion_l	hip_adduction_l	hip_rotation_l	knee_angle_l	ankle_angle_l	subtalar_angle_l	mtp_angle_l	lumbar_extension	lumbar_bending	lumbar_rotation
      1.27100000	     -0.72619672	     -7.16209538	     -2.93986510	      0.01874503	      1.04283296	      0.30693585	    -19.12789843	     12.46016576	     -0.70520549	     -3.09585372	      4.27189703	     -5.06693586	      2.44375353	     23.14219115	     -3.89794804	     -8.53230439	      5.97691032	      9.07391887	      6.86992596	     -1.04247696	      4.39648005	     12.75627704	      3.07406113
      1.27516667	     -0.76021236	     -7.07312746	     -2.84379387	      0.02479372	      1.04239857	      0.30693138	    -19.24559056	     12.37190269	     -0.88947104	     -3.38808449	      3.86028981	     -4.98620204	      2.49072016	     23.13629439	     -3.73525359	     -8.23854916	      5.64132744	      9.54607384	      7.11234349	     -1.06190597	      4.56451550	     12.49981374	      3.11564272
      1.27933333	     -0.76698819	     -7.04083327	     -2.87858167	      0.03062285	      1.04211809	      0.30703332	    -19.36765709	     12.29292007	     -0.87359405	     -3.76621100	      3.78149762	     -4.97932819	      2.50386756	     23.10370558	     -3.68004163	     -8.13345618	      5.27209381	      9.55607463	      7.15506056	     -1.06763242	      4.62646601	     12.46236569	      3.11750645
      1.28350000	     -0.80957154	     -6.95694978	     -2.90456838	      0.03665447	      1.04180289	      0.30711409	    -19.46952971	     12.16039295	     -0.80888002	     -4.11043918	      3.73239098	     -4.97563786	      2.50670977	     23.09085065	     -3.56862741	     -8.02306233	      4.88732826	      9.53964534	      7.17361219	     -1.06805625	      4.64685937	     12.45072915	      3.11997422
      1.28766667	     -0.79135168	     -6.93133635	     -2.96834703	      0.04250051	      1.04161164	      0.30727427	    -19.58891687	     12.07820439	     -0.82961308	     -4.55007858	      3.53373353	     -4.94302475	      2.52237421	     23.00208219	     -3.54400994	     -7.79422044	      4.50495765	      9.57910231	      7.24005288	     -1.07088611	      4.75988333	     12.29828265	      3.15084532
      1.29183333	     -0.81809707	     -6.78785459	     -2.86300561	      0.04885102	      1.04128134	      0.30720907	    -19.70474197	     11.92431842	     -1.01890595	     -4.85262724	      2.97729703	     -4.82318123	      2.58446487	     22.93762842	     -3.32666149	     -7.39546430	      4.14428870	      9.70228240	      7.29885441	     -1.08147825	      4.84959609	     12.05650835	      3.19940551
      1.29600000	     -0.81350544	     -6.73165101	     -2.93250737	      0.05485349	      1.04112378	      0.30733401	    -19.80448377	     11.80097509	     -1.01068634	     -5.30349918	      2.86854092	     -4.81580780	      2.60086294	     22.84378243	     -3.27013914	     -7.23126038	      3.74627797	      9.65955838	      7.30576819	     -1.08354901	      4.91930326	     11.99521955	      3.20906664
      1.30016667	     -0.78460965	     -6.60424304	     -2.87210062	      0.06113409	      1.04095246	      0.30727126	    -19.93744143	     11.63722813	     -1.22577443	     -5.68923580	      2.35745360	     -4.67081380	      2.71596271	     22.69684945	     -3.08464955	     -6.84634734	      3.40901978	      9.47834235	      7.10727227	     -1.09430470	      4.98914715	     11.78594684	      3.24416447
      1.30433333	     -0.71234384	     -6.49002272	     -2.87607535	      0.06731312	      1.04091548	      0.30715015	    -20.08483811	     11.44724135	     -1.41451597	     -6.15518156	      2.11771098	     -4.44789559	      3.12734006	     22.45009649	     -2.92666421	     -6.22214525	      3.16128572	      9.16560900	      6.36844226	     -1.09888906	      4.91071958	     11.64368458	      3.21514615
      1.30850000	     -0.73685444	     -6.36266264	     -2.96079217	      0.07365548	      1.04082601	      0.30727917	    -20.13933142	     11.23646288	     -1.43387102	     -6.61952869	      1.79254634	     -4.37792166	      3.20010827	     22.30920957	     -2.80215262	     -5.99137642	      2.86678889	      8.94957493	      6.39729747	     -1.09545640	      5.02006349	     11.49261992	      3.25853928
      1.31266667	     -0.74936898	     -6.23474889	     -3.01768971	      0.07999555	      1.04076318	      0.30732178	    -20.17793149	     11.02788797	     -1.54997155	     -7.12664784	      1.36247259	     -4.27601250	      3.29432191	     22.15396363	     -2.66094649	     -5.75004211	      2.59683894	      8.60756991	      6.30116261	     -1.08704289	      5.09791887	     11.31619795	      3.31915086
      1.31683333	     -0.69632827	     -6.11301369	     -3.02573064	      0.08628457	      1.04079462	      0.30730089	    -20.27046340	     10.83359278	     -1.70116154	     -7.63775080	      0.90136800	     -4.11118148	      3.44380798	     21.93424568	     -2.50803949	     -5.47090561	      2.32945121	      8.15013282	      6.00102756	     -1.06472077	      5.17607747	     11.12591627	      3.40046449
      1.32100000	     -0.60729391	     -5.96662201	     -3.06814740	      0.09261753	      1.04093319	      0.30713699	    -20.36788108	     10.57580215	     -1.94955024	     -8.22295770	      0.59646260	     -3.86399917	      3.93472054	     21.60323708	     -2.32087076	     -4.84688082	      2.19958693	      7.59658850	      5.02161235	     -0.94991462	      5.11715530	     11.03643794	      3.49745367
      1.32516667	     -0.61134798	     -5.89480682	     -3.17650018	      0.09876673	      1.04100325	      0.30727938	    -20.34616734	     10.40734311	     -1.92570790	     -8.87088706	      0.41245765	     -3.84381393	      3.96080725	     21.43497195	     -2.26548153	     -4.67525477	      1.93056560	      7.44663114	      5.07610110	     -0.94290772	      5.17648758	     10.91243203	      3.51682347
